<mxfile host="app.diagrams.net" modified="2022-12-14T18:29:06.814Z" agent="5.0 (Windows NT 10.0; Win64; x64) AppleWebKit/537.36 (KHTML, like Gecko) Chrome/108.0.0.0 Safari/537.36" version="20.6.2" etag="GtPTEKZZ7gdwaVsyphVL" type="github">
  <diagram id="-bgidCrPH2Z8ixJioPXW" name="Страница 1">
    <mxGraphModel dx="865" dy="456" grid="1" gridSize="10" guides="1" tooltips="1" connect="1" arrows="1" fold="1" page="1" pageScale="1" pageWidth="827" pageHeight="1169" math="0" shadow="0">
      <root>
        <mxCell id="0" />
        <mxCell id="1" parent="0" />
        <mxCell id="FB2xmxB03s61hxLgNuko-2" value="" style="sketch=0;points=[[0.5,0,0],[1,0.5,0],[0.5,1,0],[0,0.5,0],[0.145,0.145,0],[0.8555,0.145,0],[0.855,0.8555,0],[0.145,0.855,0]];verticalLabelPosition=bottom;html=1;verticalAlign=top;aspect=fixed;align=center;pointerEvents=1;shape=mxgraph.cisco19.rect;prIcon=router;fillColor=#f5f5f5;strokeColor=#666666;fontColor=#333333;" vertex="1" parent="1">
          <mxGeometry x="360" y="200" width="40" height="40" as="geometry" />
        </mxCell>
        <mxCell id="FB2xmxB03s61hxLgNuko-3" value="" style="sketch=0;points=[[0.5,0,0],[1,0.5,0],[0.5,1,0],[0,0.5,0],[0.145,0.145,0],[0.8555,0.145,0],[0.855,0.8555,0],[0.145,0.855,0]];verticalLabelPosition=bottom;html=1;verticalAlign=top;aspect=fixed;align=center;pointerEvents=1;shape=mxgraph.cisco19.rect;prIcon=router;fillColor=#f5f5f5;strokeColor=#666666;fontColor=#333333;" vertex="1" parent="1">
          <mxGeometry x="280" y="320" width="40" height="40" as="geometry" />
        </mxCell>
        <mxCell id="FB2xmxB03s61hxLgNuko-4" value="" style="sketch=0;points=[[0.5,0,0],[1,0.5,0],[0.5,1,0],[0,0.5,0],[0.145,0.145,0],[0.8555,0.145,0],[0.855,0.8555,0],[0.145,0.855,0]];verticalLabelPosition=bottom;html=1;verticalAlign=top;aspect=fixed;align=center;pointerEvents=1;shape=mxgraph.cisco19.rect;prIcon=router;fillColor=#f5f5f5;strokeColor=#666666;fontColor=#333333;" vertex="1" parent="1">
          <mxGeometry x="440" y="320" width="40" height="40" as="geometry" />
        </mxCell>
        <mxCell id="FB2xmxB03s61hxLgNuko-5" value="" style="fontColor=#0066CC;verticalAlign=top;verticalLabelPosition=bottom;labelPosition=center;align=center;html=1;outlineConnect=0;fillColor=#CCCCCC;strokeColor=#6881B3;gradientColor=none;gradientDirection=north;strokeWidth=2;shape=mxgraph.networks.monitor;" vertex="1" parent="1">
          <mxGeometry x="360" y="80" width="40" height="40" as="geometry" />
        </mxCell>
        <mxCell id="FB2xmxB03s61hxLgNuko-7" value="" style="fontColor=#0066CC;verticalAlign=top;verticalLabelPosition=bottom;labelPosition=center;align=center;html=1;outlineConnect=0;fillColor=#CCCCCC;strokeColor=#6881B3;gradientColor=none;gradientDirection=north;strokeWidth=2;shape=mxgraph.networks.monitor;" vertex="1" parent="1">
          <mxGeometry x="520" y="400" width="40" height="40" as="geometry" />
        </mxCell>
        <mxCell id="FB2xmxB03s61hxLgNuko-8" value="" style="fontColor=#0066CC;verticalAlign=top;verticalLabelPosition=bottom;labelPosition=center;align=center;html=1;outlineConnect=0;fillColor=#CCCCCC;strokeColor=#6881B3;gradientColor=none;gradientDirection=north;strokeWidth=2;shape=mxgraph.networks.monitor;" vertex="1" parent="1">
          <mxGeometry x="200" y="400" width="40" height="40" as="geometry" />
        </mxCell>
        <mxCell id="FB2xmxB03s61hxLgNuko-9" value="" style="endArrow=classic;startArrow=classic;html=1;rounded=0;exitX=0.5;exitY=0;exitDx=0;exitDy=0;exitPerimeter=0;entryX=0;entryY=0.5;entryDx=0;entryDy=0;entryPerimeter=0;" edge="1" parent="1" source="FB2xmxB03s61hxLgNuko-3" target="FB2xmxB03s61hxLgNuko-2">
          <mxGeometry width="50" height="50" relative="1" as="geometry">
            <mxPoint x="370" y="350" as="sourcePoint" />
            <mxPoint x="420" y="300" as="targetPoint" />
            <Array as="points">
              <mxPoint x="300" y="220" />
            </Array>
          </mxGeometry>
        </mxCell>
        <mxCell id="FB2xmxB03s61hxLgNuko-10" value="" style="endArrow=classic;startArrow=classic;html=1;rounded=0;entryX=1;entryY=0.5;entryDx=0;entryDy=0;entryPerimeter=0;exitX=0.5;exitY=0;exitDx=0;exitDy=0;exitPerimeter=0;" edge="1" parent="1" source="FB2xmxB03s61hxLgNuko-4" target="FB2xmxB03s61hxLgNuko-2">
          <mxGeometry width="50" height="50" relative="1" as="geometry">
            <mxPoint x="370" y="350" as="sourcePoint" />
            <mxPoint x="420" y="300" as="targetPoint" />
            <Array as="points">
              <mxPoint x="460" y="220" />
            </Array>
          </mxGeometry>
        </mxCell>
        <mxCell id="FB2xmxB03s61hxLgNuko-11" value="" style="endArrow=classic;startArrow=classic;html=1;rounded=0;entryX=1;entryY=0.5;entryDx=0;entryDy=0;entryPerimeter=0;exitX=0;exitY=0.5;exitDx=0;exitDy=0;exitPerimeter=0;" edge="1" parent="1" source="FB2xmxB03s61hxLgNuko-4" target="FB2xmxB03s61hxLgNuko-3">
          <mxGeometry width="50" height="50" relative="1" as="geometry">
            <mxPoint x="150" y="490" as="sourcePoint" />
            <mxPoint x="200" y="440" as="targetPoint" />
          </mxGeometry>
        </mxCell>
        <mxCell id="FB2xmxB03s61hxLgNuko-12" value="" style="endArrow=classic;startArrow=classic;html=1;rounded=0;exitX=0.145;exitY=0.855;exitDx=0;exitDy=0;exitPerimeter=0;entryX=1;entryY=0;entryDx=0;entryDy=0;entryPerimeter=0;" edge="1" parent="1" source="FB2xmxB03s61hxLgNuko-3" target="FB2xmxB03s61hxLgNuko-8">
          <mxGeometry width="50" height="50" relative="1" as="geometry">
            <mxPoint x="370" y="350" as="sourcePoint" />
            <mxPoint x="420" y="300" as="targetPoint" />
          </mxGeometry>
        </mxCell>
        <mxCell id="FB2xmxB03s61hxLgNuko-14" value="" style="endArrow=classic;startArrow=classic;html=1;rounded=0;exitX=0.855;exitY=0.8555;exitDx=0;exitDy=0;exitPerimeter=0;entryX=0;entryY=0;entryDx=0;entryDy=0;entryPerimeter=0;" edge="1" parent="1" source="FB2xmxB03s61hxLgNuko-4" target="FB2xmxB03s61hxLgNuko-7">
          <mxGeometry width="50" height="50" relative="1" as="geometry">
            <mxPoint x="370" y="350" as="sourcePoint" />
            <mxPoint x="420" y="300" as="targetPoint" />
          </mxGeometry>
        </mxCell>
        <mxCell id="FB2xmxB03s61hxLgNuko-15" value="" style="endArrow=classic;startArrow=classic;html=1;rounded=0;entryX=0.5;entryY=0;entryDx=0;entryDy=0;entryPerimeter=0;exitX=0.5;exitY=1;exitDx=0;exitDy=0;exitPerimeter=0;" edge="1" parent="1" source="FB2xmxB03s61hxLgNuko-5" target="FB2xmxB03s61hxLgNuko-2">
          <mxGeometry width="50" height="50" relative="1" as="geometry">
            <mxPoint x="370" y="350" as="sourcePoint" />
            <mxPoint x="420" y="300" as="targetPoint" />
          </mxGeometry>
        </mxCell>
        <mxCell id="FB2xmxB03s61hxLgNuko-16" value="&lt;font style=&quot;font-size: 14px;&quot; face=&quot;Verdana&quot;&gt;&lt;b&gt;PC3&lt;/b&gt;&lt;/font&gt;" style="text;html=1;strokeColor=none;fillColor=none;align=center;verticalAlign=middle;whiteSpace=wrap;rounded=0;" vertex="1" parent="1">
          <mxGeometry x="357" y="60" width="46" height="10" as="geometry" />
        </mxCell>
        <mxCell id="FB2xmxB03s61hxLgNuko-18" value="&lt;font style=&quot;font-size: 14px;&quot; face=&quot;Verdana&quot;&gt;&lt;b&gt;PC1&lt;/b&gt;&lt;/font&gt;&lt;span style=&quot;color: rgba(0, 0, 0, 0); font-family: monospace; font-size: 0px; text-align: start;&quot;&gt;%3CmxGraphModel%3E%3Croot%3E%3CmxCell%20id%3D%220%22%2F%3E%3CmxCell%20id%3D%221%22%20parent%3D%220%22%2F%3E%3CmxCell%20id%3D%222%22%20value%3D%22%26lt%3Bfont%20style%3D%26quot%3Bfont-size%3A%2014px%3B%26quot%3B%20face%3D%26quot%3BVerdana%26quot%3B%26gt%3B%26lt%3Bb%26gt%3BPC3%26lt%3B%2Fb%26gt%3B%26lt%3B%2Ffont%26gt%3B%22%20style%3D%22text%3Bhtml%3D1%3BstrokeColor%3Dnone%3BfillColor%3Dnone%3Balign%3Dcenter%3BverticalAlign%3Dmiddle%3BwhiteSpace%3Dwrap%3Brounded%3D0%3B%22%20vertex%3D%221%22%20parent%3D%221%22%3E%3CmxGeometry%20x%3D%22357%22%20y%3D%2260%22%20width%3D%2246%22%20height%3D%2210%22%20as%3D%22geometry%22%2F%3E%3C%2FmxCell%3E%3C%2Froot%3E%3C%2FmxGraphModel%3E&lt;/span&gt;" style="text;html=1;strokeColor=none;fillColor=none;align=center;verticalAlign=middle;whiteSpace=wrap;rounded=0;" vertex="1" parent="1">
          <mxGeometry x="154" y="430" width="46" height="10" as="geometry" />
        </mxCell>
        <mxCell id="FB2xmxB03s61hxLgNuko-19" value="&lt;font style=&quot;font-size: 14px;&quot; face=&quot;Verdana&quot;&gt;&lt;b&gt;PC2&lt;/b&gt;&lt;/font&gt;" style="text;html=1;strokeColor=none;fillColor=none;align=center;verticalAlign=middle;whiteSpace=wrap;rounded=0;" vertex="1" parent="1">
          <mxGeometry x="560" y="430" width="46" height="10" as="geometry" />
        </mxCell>
        <mxCell id="FB2xmxB03s61hxLgNuko-20" value="&lt;font style=&quot;font-size: 12px;&quot; face=&quot;Verdana&quot;&gt;&lt;b style=&quot;&quot;&gt;R01.MSK&lt;/b&gt;&lt;/font&gt;" style="text;html=1;strokeColor=none;fillColor=none;align=center;verticalAlign=middle;whiteSpace=wrap;rounded=0;" vertex="1" parent="1">
          <mxGeometry x="288" y="370" width="46" height="10" as="geometry" />
        </mxCell>
        <mxCell id="FB2xmxB03s61hxLgNuko-21" value="&lt;font style=&quot;font-size: 12px;&quot; face=&quot;Verdana&quot;&gt;&lt;b style=&quot;&quot;&gt;R01.FRT&lt;/b&gt;&lt;/font&gt;" style="text;html=1;strokeColor=none;fillColor=none;align=center;verticalAlign=middle;whiteSpace=wrap;rounded=0;" vertex="1" parent="1">
          <mxGeometry x="424" y="370" width="46" height="10" as="geometry" />
        </mxCell>
        <mxCell id="FB2xmxB03s61hxLgNuko-22" value="&lt;font style=&quot;font-size: 12px;&quot; face=&quot;Verdana&quot;&gt;&lt;b style=&quot;&quot;&gt;R01.BRL&lt;/b&gt;&lt;/font&gt;" style="text;html=1;strokeColor=none;fillColor=none;align=center;verticalAlign=middle;whiteSpace=wrap;rounded=0;" vertex="1" parent="1">
          <mxGeometry x="360" y="240" width="46" height="10" as="geometry" />
        </mxCell>
        <mxCell id="FB2xmxB03s61hxLgNuko-23" value="&lt;font style=&quot;font-size: 10px;&quot;&gt;192.168.30.254&lt;/font&gt;" style="text;html=1;strokeColor=none;fillColor=none;align=center;verticalAlign=middle;whiteSpace=wrap;rounded=0;fontFamily=Verdana;fontSize=12;" vertex="1" parent="1">
          <mxGeometry x="403" y="80" width="90" height="10" as="geometry" />
        </mxCell>
        <mxCell id="FB2xmxB03s61hxLgNuko-24" value="&lt;font style=&quot;font-size: 10px;&quot;&gt;eth2&lt;/font&gt;" style="text;html=1;strokeColor=none;fillColor=none;align=center;verticalAlign=middle;whiteSpace=wrap;rounded=0;fontFamily=Verdana;fontSize=12;fontColor=#4D4D4D;" vertex="1" parent="1">
          <mxGeometry x="392" y="120" width="28" height="10" as="geometry" />
        </mxCell>
        <mxCell id="FB2xmxB03s61hxLgNuko-25" value="&lt;font style=&quot;font-size: 10px;&quot;&gt;eth4&lt;/font&gt;" style="text;html=1;strokeColor=none;fillColor=none;align=center;verticalAlign=middle;whiteSpace=wrap;rounded=0;fontFamily=Verdana;fontSize=12;fontColor=#4D4D4D;" vertex="1" parent="1">
          <mxGeometry x="386" y="180" width="28" height="10" as="geometry" />
        </mxCell>
        <mxCell id="FB2xmxB03s61hxLgNuko-26" value="&lt;font style=&quot;font-size: 10px;&quot;&gt;eth2&lt;/font&gt;" style="text;html=1;strokeColor=none;fillColor=none;align=center;verticalAlign=middle;whiteSpace=wrap;rounded=0;fontFamily=Verdana;fontSize=12;fontColor=#4D4D4D;" vertex="1" parent="1">
          <mxGeometry x="320" y="200" width="28" height="10" as="geometry" />
        </mxCell>
        <mxCell id="FB2xmxB03s61hxLgNuko-27" value="&lt;font style=&quot;font-size: 10px;&quot;&gt;eth3&lt;/font&gt;" style="text;html=1;strokeColor=none;fillColor=none;align=center;verticalAlign=middle;whiteSpace=wrap;rounded=0;fontFamily=Verdana;fontSize=12;fontColor=#4D4D4D;" vertex="1" parent="1">
          <mxGeometry x="414" y="200" width="28" height="10" as="geometry" />
        </mxCell>
        <mxCell id="FB2xmxB03s61hxLgNuko-28" value="&lt;font style=&quot;font-size: 10px;&quot;&gt;eth2&lt;/font&gt;" style="text;html=1;strokeColor=none;fillColor=none;align=center;verticalAlign=middle;whiteSpace=wrap;rounded=0;fontFamily=Verdana;fontSize=12;fontColor=#4D4D4D;" vertex="1" parent="1">
          <mxGeometry x="260" y="300" width="28" height="10" as="geometry" />
        </mxCell>
        <mxCell id="FB2xmxB03s61hxLgNuko-29" value="&lt;font style=&quot;font-size: 10px;&quot;&gt;eth2&lt;/font&gt;" style="text;html=1;strokeColor=none;fillColor=none;align=center;verticalAlign=middle;whiteSpace=wrap;rounded=0;fontFamily=Verdana;fontSize=12;fontColor=#4D4D4D;" vertex="1" parent="1">
          <mxGeometry x="470" y="300" width="28" height="10" as="geometry" />
        </mxCell>
        <mxCell id="FB2xmxB03s61hxLgNuko-30" value="&lt;font style=&quot;font-size: 10px;&quot;&gt;eth2&lt;/font&gt;" style="text;html=1;strokeColor=none;fillColor=none;align=center;verticalAlign=middle;whiteSpace=wrap;rounded=0;fontFamily=Verdana;fontSize=12;fontColor=#4D4D4D;" vertex="1" parent="1">
          <mxGeometry x="520" y="380" width="28" height="10" as="geometry" />
        </mxCell>
        <mxCell id="FB2xmxB03s61hxLgNuko-31" value="&lt;font style=&quot;font-size: 10px;&quot;&gt;eth2&lt;/font&gt;" style="text;html=1;strokeColor=none;fillColor=none;align=center;verticalAlign=middle;whiteSpace=wrap;rounded=0;fontFamily=Verdana;fontSize=12;fontColor=#4D4D4D;" vertex="1" parent="1">
          <mxGeometry x="212" y="380" width="28" height="10" as="geometry" />
        </mxCell>
        <mxCell id="FB2xmxB03s61hxLgNuko-32" value="&lt;font style=&quot;font-size: 10px;&quot;&gt;eth3&lt;/font&gt;" style="text;html=1;strokeColor=none;fillColor=none;align=center;verticalAlign=middle;whiteSpace=wrap;rounded=0;fontFamily=Verdana;fontSize=12;fontColor=#4D4D4D;" vertex="1" parent="1">
          <mxGeometry x="321" y="350" width="28" height="10" as="geometry" />
        </mxCell>
        <mxCell id="FB2xmxB03s61hxLgNuko-33" value="&lt;font style=&quot;font-size: 10px;&quot;&gt;eth3&lt;/font&gt;" style="text;html=1;strokeColor=none;fillColor=none;align=center;verticalAlign=middle;whiteSpace=wrap;rounded=0;fontFamily=Verdana;fontSize=12;fontColor=#4D4D4D;" vertex="1" parent="1">
          <mxGeometry x="414" y="310" width="28" height="10" as="geometry" />
        </mxCell>
        <mxCell id="FB2xmxB03s61hxLgNuko-34" value="&lt;font style=&quot;font-size: 10px;&quot;&gt;eth4&lt;/font&gt;" style="text;html=1;strokeColor=none;fillColor=none;align=center;verticalAlign=middle;whiteSpace=wrap;rounded=0;fontFamily=Verdana;fontSize=12;fontColor=#4D4D4D;" vertex="1" parent="1">
          <mxGeometry x="252" y="340" width="28" height="10" as="geometry" />
        </mxCell>
        <mxCell id="FB2xmxB03s61hxLgNuko-35" value="&lt;font style=&quot;font-size: 10px;&quot;&gt;eth4&lt;/font&gt;" style="text;html=1;strokeColor=none;fillColor=none;align=center;verticalAlign=middle;whiteSpace=wrap;rounded=0;fontFamily=Verdana;fontSize=12;fontColor=#4D4D4D;" vertex="1" parent="1">
          <mxGeometry x="480" y="340" width="28" height="10" as="geometry" />
        </mxCell>
        <mxCell id="FB2xmxB03s61hxLgNuko-36" value="&lt;font style=&quot;font-size: 10px;&quot;&gt;192.168.20.254&lt;/font&gt;" style="text;html=1;strokeColor=none;fillColor=none;align=center;verticalAlign=middle;whiteSpace=wrap;rounded=0;fontFamily=Verdana;fontSize=12;" vertex="1" parent="1">
          <mxGeometry x="560" y="410" width="90" height="10" as="geometry" />
        </mxCell>
        <mxCell id="FB2xmxB03s61hxLgNuko-37" value="&lt;font style=&quot;font-size: 10px;&quot;&gt;192.168.10.254&lt;/font&gt;" style="text;html=1;strokeColor=none;fillColor=none;align=center;verticalAlign=middle;whiteSpace=wrap;rounded=0;fontFamily=Verdana;fontSize=12;" vertex="1" parent="1">
          <mxGeometry x="110" y="410" width="90" height="10" as="geometry" />
        </mxCell>
        <mxCell id="FB2xmxB03s61hxLgNuko-38" value="&lt;font style=&quot;font-size: 10px;&quot;&gt;192.168.30.1&lt;/font&gt;" style="text;html=1;strokeColor=none;fillColor=none;align=center;verticalAlign=middle;whiteSpace=wrap;rounded=0;fontFamily=Verdana;fontSize=12;" vertex="1" parent="1">
          <mxGeometry x="380" y="170" width="90" height="10" as="geometry" />
        </mxCell>
        <mxCell id="FB2xmxB03s61hxLgNuko-39" value="&lt;font style=&quot;font-size: 10px;&quot;&gt;192.168.20.1&lt;/font&gt;" style="text;html=1;strokeColor=none;fillColor=none;align=center;verticalAlign=middle;whiteSpace=wrap;rounded=0;fontFamily=Verdana;fontSize=12;" vertex="1" parent="1">
          <mxGeometry x="470" y="330" width="90" height="10" as="geometry" />
        </mxCell>
        <mxCell id="FB2xmxB03s61hxLgNuko-40" value="&lt;font style=&quot;font-size: 10px;&quot;&gt;192.168.10.1&lt;/font&gt;" style="text;html=1;strokeColor=none;fillColor=none;align=center;verticalAlign=middle;whiteSpace=wrap;rounded=0;fontFamily=Verdana;fontSize=12;" vertex="1" parent="1">
          <mxGeometry x="190" y="330" width="90" height="10" as="geometry" />
        </mxCell>
        <mxCell id="FB2xmxB03s61hxLgNuko-41" value="&lt;font style=&quot;font-size: 10px;&quot;&gt;10.10.1.2/30&lt;/font&gt;" style="text;html=1;strokeColor=none;fillColor=none;align=center;verticalAlign=middle;whiteSpace=wrap;rounded=0;fontFamily=Verdana;fontSize=12;" vertex="1" parent="1">
          <mxGeometry x="248" y="200" width="70" height="10" as="geometry" />
        </mxCell>
        <mxCell id="FB2xmxB03s61hxLgNuko-42" value="&lt;font style=&quot;font-size: 10px;&quot;&gt;10.10.3.2/30&lt;/font&gt;" style="text;html=1;strokeColor=none;fillColor=none;align=center;verticalAlign=middle;whiteSpace=wrap;rounded=0;fontFamily=Verdana;fontSize=12;" vertex="1" parent="1">
          <mxGeometry x="449" y="200" width="70" height="10" as="geometry" />
        </mxCell>
        <mxCell id="FB2xmxB03s61hxLgNuko-43" value="&lt;font style=&quot;font-size: 10px;&quot;&gt;10.10.1.1/30&lt;/font&gt;" style="text;html=1;strokeColor=none;fillColor=none;align=center;verticalAlign=middle;whiteSpace=wrap;rounded=0;fontFamily=Verdana;fontSize=12;" vertex="1" parent="1">
          <mxGeometry x="300" y="290" width="70" height="10" as="geometry" />
        </mxCell>
        <mxCell id="FB2xmxB03s61hxLgNuko-44" value="&lt;font style=&quot;font-size: 10px;&quot;&gt;10.10.3.1/30&lt;/font&gt;" style="text;html=1;strokeColor=none;fillColor=none;align=center;verticalAlign=middle;whiteSpace=wrap;rounded=0;fontFamily=Verdana;fontSize=12;" vertex="1" parent="1">
          <mxGeometry x="390" y="290" width="70" height="10" as="geometry" />
        </mxCell>
        <mxCell id="FB2xmxB03s61hxLgNuko-45" value="&lt;font style=&quot;font-size: 10px;&quot;&gt;10.10.2.1/30&lt;/font&gt;" style="text;html=1;strokeColor=none;fillColor=none;align=center;verticalAlign=middle;whiteSpace=wrap;rounded=0;fontFamily=Verdana;fontSize=12;" vertex="1" parent="1">
          <mxGeometry x="318" y="360" width="70" height="10" as="geometry" />
        </mxCell>
        <mxCell id="FB2xmxB03s61hxLgNuko-52" value="&lt;font style=&quot;font-size: 10px;&quot;&gt;10.10.2.2/30&lt;/font&gt;" style="text;html=1;strokeColor=none;fillColor=none;align=center;verticalAlign=middle;whiteSpace=wrap;rounded=0;fontFamily=Verdana;fontSize=12;" vertex="1" parent="1">
          <mxGeometry x="372" y="320" width="70" height="10" as="geometry" />
        </mxCell>
      </root>
    </mxGraphModel>
  </diagram>
</mxfile>
